<svg width="100" height="35" viewBox="0 0 100 35" fill="none" xmlns="http://www.w3.org/2000/svg">
<path d="M2.50781 9.28906C3.05469 9.36719 3.53125 9.42969 3.9375 9.47656C4.34375 9.52344 4.67969 9.5625 4.94531 9.59375C5.25781 9.625 5.52344 9.64844 5.74219 9.66406C5.99219 9.69531 6.29688 9.67969 6.65625 9.61719C7.03125 9.55469 7.42969 9.49219 7.85156 9.42969C8.27344 9.35156 8.71094 9.28906 9.16406 9.24219C9.61719 9.19531 10.0547 9.19531 10.4766 9.24219C10.7578 9.27344 11.1172 9.33594 11.5547 9.42969C11.9922 9.52344 12.4531 9.67188 12.9375 9.875C13.4375 10.0781 13.9375 10.3438 14.4375 10.6719C14.9375 11 15.3906 11.4141 15.7969 11.9141C16.2031 12.4141 16.5391 13.0078 16.8047 13.6953C17.0703 14.3828 17.2188 15.1875 17.25 16.1094C17.2969 17.4844 17.1719 18.7344 16.875 19.8594C16.5781 20.9844 16.1172 21.9453 15.4922 22.7422C14.8828 23.5391 14.1094 24.1641 13.1719 24.6172C12.2344 25.0703 11.1406 25.3203 9.89062 25.3672C8.9375 25.4453 8 25.5156 7.07812 25.5781C6.6875 25.6094 6.27344 25.6328 5.83594 25.6484C5.41406 25.6641 4.99219 25.6797 4.57031 25.6953C4.14844 25.6953 3.74219 25.6875 3.35156 25.6719C2.96094 25.6562 2.60156 25.6328 2.27344 25.6016C2.63281 25.4297 2.92188 25.2578 3.14062 25.0859C3.375 24.9141 3.55469 24.7656 3.67969 24.6406C3.82031 24.4844 3.92188 24.3438 3.98438 24.2188C4.01562 24.0469 4.0625 23.7109 4.125 23.2109C4.17188 22.7891 4.23438 22.1875 4.3125 21.4062C4.39062 20.625 4.48438 19.5625 4.59375 18.2188L4.73438 16.5547C4.8125 15.5234 4.84375 14.6797 4.82812 14.0234C4.82812 13.3672 4.8125 12.8516 4.78125 12.4766C4.73438 12.0391 4.67188 11.7188 4.59375 11.5156C4.53125 11.3438 4.41406 11.1406 4.24219 10.9062C4.08594 10.7188 3.86719 10.4922 3.58594 10.2266C3.32031 9.94531 2.96094 9.63281 2.50781 9.28906ZM7.45312 17.9141C7.48438 19.3047 7.55469 20.375 7.66406 21.125C7.78906 21.8594 7.92188 22.4062 8.0625 22.7656C8.23438 23.1719 8.42188 23.4141 8.625 23.4922C8.92188 23.4922 9.25781 23.3672 9.63281 23.1172C10.0078 22.8516 10.375 22.4531 10.7344 21.9219C11.1094 21.3906 11.4453 20.7266 11.7422 19.9297C12.0547 19.1328 12.2812 18.2031 12.4219 17.1406C12.5625 16.0781 12.5234 15.1406 12.3047 14.3281C12.0859 13.5156 11.7969 12.8359 11.4375 12.2891C11.0781 11.7266 10.7109 11.3047 10.3359 11.0234C9.96094 10.7266 9.67969 10.5781 9.49219 10.5781C9.27344 10.5781 9.07812 10.6406 8.90625 10.7656C8.73438 10.875 8.49219 11.1328 8.17969 11.5391C8.02344 11.7578 7.88281 12.0703 7.75781 12.4766C7.64844 12.8359 7.55469 13.3125 7.47656 13.9062C7.39844 14.5 7.375 15.2656 7.40625 16.2031L7.45312 17.9141ZM20.0859 16.5078C20.1641 16.4141 20.2109 16.2422 20.2266 15.9922C20.2578 15.7266 20.3203 15.4297 20.4141 15.1016C20.5234 14.7734 20.7031 14.4297 20.9531 14.0703C21.2031 13.7109 21.6094 13.375 22.1719 13.0625C22.7188 12.75 23.25 12.5625 23.7656 12.5C24.2812 12.4375 24.7734 12.4609 25.2422 12.5703C25.7109 12.6797 26.1484 12.8516 26.5547 13.0859C26.9766 13.3203 27.3594 13.5781 27.7031 13.8594C27.9375 14.0469 28.125 14.3203 28.2656 14.6797C28.4062 15.0234 28.5156 15.4141 28.5938 15.8516C28.6719 16.2891 28.7266 16.75 28.7578 17.2344C28.8047 17.7031 28.8359 18.1641 28.8516 18.6172C28.8672 19.0547 28.875 19.4609 28.875 19.8359C28.8906 20.1953 28.9219 20.4922 28.9688 20.7266C29.0312 21.0703 29.1406 21.3672 29.2969 21.6172C29.4531 21.8516 29.625 22.0547 29.8125 22.2266C30 22.3828 30.1875 22.5078 30.375 22.6016C30.5625 22.6953 30.7266 22.7656 30.8672 22.8125C30.9609 22.8594 31.0469 22.8906 31.125 22.9062C31.2812 22.9688 31.3906 22.9688 31.4531 22.9062C31.3594 23.125 31.2734 23.3125 31.1953 23.4688C31.1172 23.625 31.0547 23.7578 31.0078 23.8672C30.9453 23.9922 30.8906 24.0938 30.8438 24.1719C30.7969 24.2656 30.7422 24.3516 30.6797 24.4297C30.6328 24.5078 30.5703 24.5938 30.4922 24.6875C30.4141 24.7812 30.3359 24.8828 30.2578 24.9922C30.0547 24.9141 29.8594 24.8203 29.6719 24.7109C29.5 24.6016 29.3438 24.5 29.2031 24.4062C29.0312 24.2969 28.875 24.1875 28.7344 24.0781C28.5938 23.9688 28.4609 23.8438 28.3359 23.7031C28.2266 23.5781 28.1094 23.4453 27.9844 23.3047C27.875 23.1641 27.7812 23.0078 27.7031 22.8359C27.6094 23.0391 27.3828 23.3281 27.0234 23.7031C26.6797 24.0781 26.2266 24.4219 25.6641 24.7344C25.1016 25.0312 24.4453 25.2422 23.6953 25.3672C22.9609 25.4922 22.1484 25.4062 21.2578 25.1094C20.8672 24.9844 20.5 24.8047 20.1562 24.5703C19.8125 24.3203 19.5156 24.0234 19.2656 23.6797C19.0312 23.3359 18.8594 22.9453 18.75 22.5078C18.6562 22.0547 18.6641 21.5547 18.7734 21.0078C18.8828 20.4609 19.0781 20 19.3594 19.625C19.6406 19.25 19.9766 18.9453 20.3672 18.7109C20.7578 18.4766 21.1953 18.2969 21.6797 18.1719C22.1641 18.0469 22.6641 17.9609 23.1797 17.9141C23.5859 17.8984 23.9922 17.9219 24.3984 17.9844C24.7422 18.0469 25.1016 18.1641 25.4766 18.3359C25.8516 18.4922 26.1719 18.7344 26.4375 19.0625C26.4219 18.2344 26.3906 17.5781 26.3438 17.0938C26.3125 16.5938 26.2812 16.2109 26.25 15.9453C26.1875 15.6328 26.1328 15.4141 26.0859 15.2891C26.0078 15.1797 25.9219 15.0547 25.8281 14.9141C25.75 14.7734 25.6484 14.6484 25.5234 14.5391C25.3984 14.4141 25.2422 14.3125 25.0547 14.2344C24.8672 14.1562 24.6484 14.125 24.3984 14.1406C24.1328 14.1562 23.9219 14.2266 23.7656 14.3516C23.6094 14.4766 23.4844 14.625 23.3906 14.7969C23.3125 14.9531 23.2656 15.125 23.25 15.3125C23.2344 15.5 23.2422 15.6641 23.2734 15.8047C23.3047 15.8984 23.3516 16 23.4141 16.1094C23.4766 16.2031 23.5625 16.3047 23.6719 16.4141C23.7812 16.5234 23.9297 16.6172 24.1172 16.6953C23.7578 16.7422 23.4375 16.7812 23.1562 16.8125C22.875 16.8281 22.6328 16.8516 22.4297 16.8828C22.1953 16.9141 21.9922 16.9375 21.8203 16.9531C21.6484 16.9688 21.4453 17 21.2109 17.0469C21.0078 17.0781 20.7578 17.1172 20.4609 17.1641C20.1641 17.2109 19.8203 17.2734 19.4297 17.3516C19.5234 17.2422 19.6094 17.1406 19.6875 17.0469C19.7656 16.9375 19.8359 16.8438 19.8984 16.7656C19.9609 16.6719 20.0234 16.5859 20.0859 16.5078ZM23.6016 19.2969C23.3203 19.3125 23.0391 19.3828 22.7578 19.5078C22.4766 19.6172 22.2266 19.7812 22.0078 20C21.7891 20.2031 21.6016 20.4453 21.4453 20.7266C21.3047 20.9922 21.2344 21.2891 21.2344 21.6172C21.2344 21.9453 21.3125 22.2344 21.4688 22.4844C21.6406 22.7188 21.8594 22.9141 22.125 23.0703C22.4062 23.2266 22.7031 23.3203 23.0156 23.3516C23.3438 23.3828 23.6641 23.3516 23.9766 23.2578C24.2734 23.1484 24.5547 22.9766 24.8203 22.7422C25.0859 22.4922 25.3125 22.2266 25.5 21.9453C25.6875 21.6484 25.8203 21.3594 25.8984 21.0781C25.9766 20.7812 25.9844 20.5391 25.9219 20.3516C25.7969 19.9453 25.5156 19.6641 25.0781 19.5078C24.6406 19.3359 24.1484 19.2656 23.6016 19.2969ZM30.9844 14.7734C31.2812 14.7891 31.5469 14.7969 31.7812 14.7969C32.0312 14.7812 32.2422 14.7656 32.4141 14.75C32.6172 14.7344 32.7969 14.7188 32.9531 14.7031C33.1875 14.6719 33.4297 14.6328 33.6797 14.5859C33.8984 14.5547 34.125 14.5156 34.3594 14.4688C34.6094 14.4062 34.8516 14.3359 35.0859 14.2578C34.9922 14.4922 34.9141 14.6953 34.8516 14.8672C34.7891 15.0391 34.7422 15.1875 34.7109 15.3125C34.6641 15.4531 34.6406 15.5703 34.6406 15.6641C34.625 15.7734 34.6172 15.9062 34.6172 16.0625C34.6016 16.3281 34.6016 16.7578 34.6172 17.3516C35.4297 16.6484 36.1094 16.1016 36.6562 15.7109C37.2188 15.3203 37.6641 15.0156 37.9922 14.7969C38.3828 14.5469 38.6875 14.3828 38.9062 14.3047C39.4844 14.2109 39.9922 14.3438 40.4297 14.7031C40.6172 14.8594 40.7969 15.0703 40.9688 15.3359C41.1406 15.5859 41.2891 15.9219 41.4141 16.3438C41.5391 16.7656 41.6328 17.2734 41.6953 17.8672C41.7578 18.4453 41.7656 19.1406 41.7188 19.9531C41.3906 19.9844 41.0938 20.0156 40.8281 20.0469C40.5781 20.0781 40.3672 20.1016 40.1953 20.1172C39.9922 20.1484 39.8047 20.1641 39.6328 20.1641L39 20.2344C38.7812 20.2656 38.5078 20.2969 38.1797 20.3281C37.8672 20.3438 37.4844 20.375 37.0312 20.4219C37.6875 19.8906 38.1094 19.4297 38.2969 19.0391C38.5 18.6328 38.5859 18.2969 38.5547 18.0312C38.5234 17.7344 38.3828 17.4766 38.1328 17.2578C37.8359 17.0859 37.5156 17.0234 37.1719 17.0703C36.875 17.1016 36.5312 17.2344 36.1406 17.4688C35.75 17.7031 35.3359 18.1406 34.8984 18.7812C34.9297 19.7812 34.9609 20.6094 34.9922 21.2656C35.0391 21.9219 35.0781 22.4531 35.1094 22.8594C35.1562 23.3281 35.1953 23.6953 35.2266 23.9609C35.2734 24.1953 35.3672 24.4453 35.5078 24.7109C35.6172 24.9297 35.7734 25.1719 35.9766 25.4375C36.1797 25.7031 36.4453 25.9688 36.7734 26.2344C36.0859 26.2031 35.5234 26.2031 35.0859 26.2344C34.8203 26.25 34.5859 26.2656 34.3828 26.2812C34.1641 26.3125 33.9297 26.3438 33.6797 26.375C33.4609 26.4062 33.2031 26.4375 32.9062 26.4688C32.625 26.5156 32.3125 26.5625 31.9688 26.6094C32.0938 26.4375 32.1953 26.2344 32.2734 26C32.3516 25.7812 32.4141 25.5703 32.4609 25.3672C32.5234 25.1328 32.5703 24.8906 32.6016 24.6406C32.6172 24.4219 32.625 24.0938 32.625 23.6562C32.6406 23.2188 32.6328 22.7266 32.6016 22.1797C32.5859 21.6172 32.5625 21.0391 32.5312 20.4453C32.5 19.8359 32.4609 19.2656 32.4141 18.7344C32.3672 18.2031 32.3125 17.7422 32.25 17.3516C32.2031 16.9453 32.1484 16.6641 32.0859 16.5078C32.0078 16.3203 31.9141 16.1328 31.8047 15.9453C31.7109 15.7734 31.5938 15.5938 31.4531 15.4062C31.3125 15.2031 31.1562 14.9922 30.9844 14.7734Z" fill="#1EA8E7"/>
<path d="M42.1318 15.5264C42.4443 15.6045 42.7422 15.6631 43.0254 15.7021C43.3086 15.7412 43.5576 15.7705 43.7725 15.79C44.0264 15.8193 44.2607 15.8291 44.4756 15.8193C44.749 15.8193 45.0908 15.7949 45.501 15.7461C45.9209 15.6973 46.3506 15.6533 46.79 15.6143C47.2295 15.5654 47.6494 15.5361 48.0498 15.5264C48.46 15.5068 48.792 15.5312 49.0459 15.5996C49.2998 15.6582 49.5586 15.751 49.8223 15.8779C50.0957 15.9951 50.3447 16.1465 50.5693 16.332C50.7939 16.5078 50.9795 16.7178 51.126 16.9619C51.2725 17.1963 51.3555 17.4648 51.375 17.7676C51.3652 18.1484 51.2773 18.5049 51.1113 18.8369C50.9746 19.1201 50.7451 19.4131 50.4229 19.7158C50.1006 20.0088 49.6367 20.2334 49.0312 20.3896C49.334 20.4287 49.5928 20.4971 49.8076 20.5947C50.0322 20.6826 50.2227 20.79 50.3789 20.917C50.5449 21.0342 50.6768 21.166 50.7744 21.3125C50.8818 21.459 50.9648 21.6055 51.0234 21.752C51.1699 22.0938 51.2383 22.4746 51.2285 22.8945C51.1699 23.4414 51.0576 23.876 50.8916 24.1982C50.7354 24.5205 50.5547 24.7695 50.3496 24.9453C50.1445 25.1211 49.9346 25.2432 49.7197 25.3115C49.5049 25.3799 49.3096 25.4336 49.1338 25.4727C48.958 25.5117 48.7432 25.5312 48.4893 25.5312C48.2354 25.5312 47.9619 25.5264 47.6689 25.5166C47.3857 25.4971 47.0928 25.4824 46.79 25.4727C46.4873 25.4531 46.1992 25.4531 45.9258 25.4727C45.7012 25.4922 45.4277 25.5117 45.1055 25.5312C44.832 25.5508 44.4902 25.5752 44.0801 25.6045C43.6699 25.624 43.1914 25.6484 42.6445 25.6777C42.752 25.5996 42.8398 25.5117 42.9082 25.4141C42.9863 25.3066 43.0498 25.2139 43.0986 25.1357C43.1475 25.0381 43.1914 24.9453 43.2305 24.8574C43.2598 24.7793 43.2842 24.5645 43.3037 24.2129C43.3232 23.8613 43.3379 23.4414 43.3477 22.9531C43.3574 22.4551 43.3623 21.9229 43.3623 21.3564C43.3721 20.7803 43.3672 20.2285 43.3477 19.7012C43.3379 19.1641 43.3184 18.6904 43.2891 18.2803C43.2695 17.8604 43.2402 17.5576 43.2012 17.3721C43.1426 17.167 43.0645 16.957 42.9668 16.7422C42.8887 16.5566 42.7764 16.3564 42.6299 16.1416C42.4932 15.9268 42.3271 15.7217 42.1318 15.5264ZM45.2227 17.0205C45.2227 17.0596 45.2275 17.1914 45.2373 17.416C45.2471 17.6113 45.2568 17.9141 45.2666 18.3242C45.2861 18.7246 45.3105 19.2959 45.3398 20.0381C45.584 20.1455 45.8232 20.2041 46.0576 20.2139C46.292 20.2139 46.502 20.2041 46.6875 20.1846C46.9023 20.1553 47.1074 20.1064 47.3027 20.0381C47.5664 19.9307 47.7715 19.7549 47.918 19.5107C48.0742 19.2666 48.1768 19.0127 48.2256 18.749C48.2842 18.4756 48.2988 18.2217 48.2695 17.9873C48.2402 17.7432 48.1768 17.5674 48.0791 17.46C47.8936 17.2939 47.6641 17.1572 47.3906 17.0498C47.1562 16.9619 46.8584 16.9033 46.4971 16.874C46.1455 16.835 45.7207 16.8838 45.2227 17.0205ZM45.1494 23.9639C45.5107 24.1494 45.8281 24.2715 46.1016 24.3301C46.375 24.3887 46.6045 24.418 46.79 24.418C47.0049 24.418 47.1904 24.3887 47.3467 24.3301C47.5322 24.2422 47.7129 24.125 47.8887 23.9785C48.0742 23.8223 48.2109 23.6416 48.2988 23.4365C48.3965 23.2217 48.4355 22.9873 48.416 22.7334C48.3965 22.4697 48.2842 22.1816 48.0791 21.8691C47.8936 21.6445 47.6689 21.4688 47.4053 21.3418C47.1709 21.2344 46.873 21.166 46.5117 21.1367C46.1602 21.1074 45.7256 21.1904 45.208 21.3857L45.1494 23.9639ZM55.9746 19.4375C56.2285 19.4375 56.4922 19.4863 56.7656 19.584C57.0391 19.6719 57.3027 19.7891 57.5566 19.9355C57.8105 20.0723 58.04 20.2236 58.2451 20.3896C58.46 20.5459 58.6357 20.6973 58.7725 20.8438C59.0166 21.1074 59.1826 21.4639 59.2705 21.9131C59.3682 22.3525 59.3877 22.8066 59.3291 23.2754C59.2705 23.7344 59.1338 24.1689 58.9189 24.5791C58.7041 24.9893 58.4062 25.292 58.0254 25.4873C57.752 25.624 57.4834 25.7314 57.2197 25.8096C56.9561 25.8877 56.7021 25.9463 56.458 25.9854C56.2139 26.0244 55.9844 26.0439 55.7695 26.0439C55.5547 26.0439 55.3691 26.0391 55.2129 26.0293C54.9199 26.0098 54.6123 25.9072 54.29 25.7217C53.9775 25.5361 53.6797 25.3066 53.3965 25.0332C53.123 24.7598 52.8887 24.4619 52.6934 24.1396C52.498 23.8076 52.3809 23.4951 52.3418 23.2021C52.2832 22.8018 52.2734 22.3818 52.3125 21.9424C52.3516 21.5029 52.4932 21.0977 52.7373 20.7266C52.9912 20.3555 53.3721 20.0479 53.8799 19.8037C54.3975 19.5596 55.0957 19.4375 55.9746 19.4375ZM55.4912 25.1211C55.5986 25.1406 55.7451 25.1162 55.9307 25.0479C56.1162 24.9697 56.2969 24.8477 56.4727 24.6816C56.6582 24.5156 56.8193 24.3057 56.9561 24.0518C57.1025 23.7881 57.1904 23.4707 57.2197 23.0996C57.249 22.7383 57.249 22.4062 57.2197 22.1035C57.2002 21.8008 57.1562 21.5371 57.0879 21.3125C57.0195 21.0781 56.9414 20.8877 56.8535 20.7412C56.7656 20.5947 56.6729 20.4922 56.5752 20.4336C56.4092 20.3457 56.209 20.2773 55.9746 20.2285C55.7402 20.1699 55.54 20.1797 55.374 20.2578C55.2959 20.2969 55.1982 20.3799 55.0811 20.5068C54.9639 20.6338 54.8467 20.7949 54.7295 20.9902C54.6123 21.1758 54.5049 21.3906 54.4072 21.6348C54.3193 21.8789 54.2559 22.1328 54.2168 22.3965C54.1777 22.6602 54.168 22.9434 54.1875 23.2461C54.2168 23.5488 54.2803 23.8369 54.3779 24.1104C54.4756 24.374 54.6123 24.6035 54.7881 24.7988C54.9736 24.9844 55.208 25.0918 55.4912 25.1211ZM63.958 19.4375C64.2119 19.4375 64.4756 19.4863 64.749 19.584C65.0225 19.6719 65.2861 19.7891 65.54 19.9355C65.7939 20.0723 66.0234 20.2236 66.2285 20.3896C66.4434 20.5459 66.6191 20.6973 66.7559 20.8438C67 21.1074 67.166 21.4639 67.2539 21.9131C67.3516 22.3525 67.3711 22.8066 67.3125 23.2754C67.2539 23.7344 67.1172 24.1689 66.9023 24.5791C66.6875 24.9893 66.3896 25.292 66.0088 25.4873C65.7354 25.624 65.4668 25.7314 65.2031 25.8096C64.9395 25.8877 64.6855 25.9463 64.4414 25.9854C64.1973 26.0244 63.9678 26.0439 63.7529 26.0439C63.5381 26.0439 63.3525 26.0391 63.1963 26.0293C62.9033 26.0098 62.5957 25.9072 62.2734 25.7217C61.9609 25.5361 61.6631 25.3066 61.3799 25.0332C61.1064 24.7598 60.8721 24.4619 60.6768 24.1396C60.4814 23.8076 60.3643 23.4951 60.3252 23.2021C60.2666 22.8018 60.2568 22.3818 60.2959 21.9424C60.335 21.5029 60.4766 21.0977 60.7207 20.7266C60.9746 20.3555 61.3555 20.0479 61.8633 19.8037C62.3809 19.5596 63.0791 19.4375 63.958 19.4375ZM63.4746 25.1211C63.582 25.1406 63.7285 25.1162 63.9141 25.0479C64.0996 24.9697 64.2803 24.8477 64.4561 24.6816C64.6416 24.5156 64.8027 24.3057 64.9395 24.0518C65.0859 23.7881 65.1738 23.4707 65.2031 23.0996C65.2324 22.7383 65.2324 22.4062 65.2031 22.1035C65.1836 21.8008 65.1396 21.5371 65.0713 21.3125C65.0029 21.0781 64.9248 20.8877 64.8369 20.7412C64.749 20.5947 64.6562 20.4922 64.5586 20.4336C64.3926 20.3457 64.1924 20.2773 63.958 20.2285C63.7236 20.1699 63.5234 20.1797 63.3574 20.2578C63.2793 20.2969 63.1816 20.3799 63.0645 20.5068C62.9473 20.6338 62.8301 20.7949 62.7129 20.9902C62.5957 21.1758 62.4883 21.3906 62.3906 21.6348C62.3027 21.8789 62.2393 22.1328 62.2002 22.3965C62.1611 22.6602 62.1514 22.9434 62.1709 23.2461C62.2002 23.5488 62.2637 23.8369 62.3613 24.1104C62.459 24.374 62.5957 24.6035 62.7715 24.7988C62.957 24.9844 63.1914 25.0918 63.4746 25.1211ZM67.8691 15.4385C67.9766 15.4873 68.1035 15.5215 68.25 15.541C68.4062 15.5605 68.5527 15.5703 68.6895 15.5703C68.8555 15.5703 69.0264 15.5654 69.2021 15.5557C69.3779 15.5459 69.5928 15.5264 69.8467 15.4971C70.0518 15.4775 70.3057 15.4531 70.6084 15.4238C70.9111 15.3945 71.248 15.3555 71.6191 15.3066C71.4824 15.375 71.3652 15.4482 71.2676 15.5264C71.1699 15.6045 71.0869 15.6826 71.0186 15.7607C70.9404 15.8486 70.877 15.9365 70.8281 16.0244C70.7598 16.1416 70.667 16.3467 70.5498 16.6396C70.4424 16.9229 70.3301 17.2402 70.2129 17.5918C70.1055 17.9434 70.0078 18.2998 69.9199 18.6611C69.8418 19.0225 69.7979 19.3301 69.7881 19.584C69.7783 19.7988 69.7686 20.043 69.7588 20.3164C69.749 20.5508 69.7393 20.8389 69.7295 21.1807C69.7197 21.5225 69.71 21.9131 69.7002 22.3525C70.4033 21.8447 70.9453 21.4395 71.3262 21.1367C71.707 20.8242 71.9854 20.585 72.1611 20.4189C72.3662 20.2334 72.4883 20.1016 72.5273 20.0234C72.5176 19.9648 72.4932 19.9014 72.4541 19.833C72.4053 19.7744 72.3369 19.7061 72.249 19.6279C72.1611 19.5498 72.0293 19.4619 71.8535 19.3643C72.1074 19.3936 72.3271 19.4131 72.5127 19.4229C72.708 19.4326 72.874 19.4424 73.0107 19.4521C73.167 19.4619 73.3037 19.4619 73.4209 19.4521C73.5479 19.4521 73.7041 19.4473 73.8896 19.4375C74.2119 19.4277 74.71 19.4131 75.3838 19.3936C74.7295 19.7354 74.2119 20.0283 73.8311 20.2725C73.6162 20.4092 73.4258 20.5361 73.2598 20.6533C73.0938 20.7803 72.9229 20.9121 72.7471 21.0488C72.5908 21.166 72.4102 21.3027 72.2051 21.459C72.0098 21.6152 71.8145 21.7812 71.6191 21.957C71.9609 22.5137 72.2588 22.9727 72.5127 23.334C72.7764 23.6953 72.9961 23.9883 73.1719 24.2129C73.377 24.4766 73.5576 24.6865 73.7139 24.8428C73.8701 24.9893 74.0752 25.1553 74.3291 25.3408C74.5439 25.5068 74.8223 25.7021 75.1641 25.9268C75.5156 26.1416 75.9404 26.3906 76.4385 26.6738C76.1846 26.625 75.9404 26.5908 75.7061 26.5713C75.4717 26.5615 75.2715 26.5615 75.1055 26.5713C74.9004 26.5811 74.7148 26.6006 74.5488 26.6299C74.373 26.6689 74.1777 26.7178 73.9629 26.7764C73.7773 26.8252 73.5576 26.8887 73.3037 26.9668C73.0596 27.0547 72.791 27.167 72.498 27.3037C72.6836 27.167 72.8203 27.0352 72.9082 26.9082C73.0059 26.791 73.0742 26.6934 73.1133 26.6152C73.1523 26.5176 73.167 26.4346 73.1572 26.3662C73.1084 26.2686 72.9961 26.0684 72.8203 25.7656C72.6543 25.5117 72.4102 25.1406 72.0879 24.6523C71.7656 24.1641 71.3066 23.5 70.7109 22.6602C70.6816 22.6699 70.6328 22.6992 70.5645 22.748C70.5059 22.7969 70.418 22.8652 70.3008 22.9531C70.1836 23.0312 70.0273 23.1484 69.832 23.3047L70.2275 25.8682C70.1396 25.9072 70.042 25.9414 69.9346 25.9707C69.8369 26 69.7441 26.0244 69.6562 26.0439C69.5488 26.0732 69.4414 26.0928 69.334 26.1025C69.2266 26.1123 69.0996 26.1318 68.9531 26.1611C68.8262 26.1807 68.6748 26.2051 68.499 26.2344C68.3232 26.2734 68.123 26.3174 67.8984 26.3662C68.0254 26.2783 68.1279 26.1758 68.2061 26.0586C68.2842 25.9512 68.3477 25.8486 68.3965 25.751C68.4453 25.6436 68.4893 25.5312 68.5283 25.4141C68.5479 25.3164 68.5674 25.0625 68.5869 24.6523C68.6162 24.2422 68.6406 23.7539 68.6602 23.1875C68.6797 22.6113 68.6943 21.9961 68.7041 21.3418C68.7236 20.6875 68.7334 20.0723 68.7334 19.4961C68.7334 18.9102 68.7285 18.4023 68.7188 17.9727C68.709 17.5332 68.6895 17.25 68.6602 17.123C68.6113 16.9668 68.5527 16.8008 68.4844 16.625C68.4258 16.4688 68.3428 16.293 68.2354 16.0977C68.1377 15.8926 68.0156 15.6729 67.8691 15.4385ZM74.8564 19.4521L77.5518 19.4814C77.3955 20.0771 77.2783 20.585 77.2002 21.0049C77.1318 21.4248 77.0879 21.7764 77.0684 22.0596C77.0293 22.3818 77.0195 22.6553 77.0391 22.8799C77.0684 23.085 77.1172 23.3047 77.1855 23.5391C77.2441 23.7344 77.332 23.959 77.4492 24.2129C77.5664 24.4668 77.7227 24.7207 77.918 24.9746C77.8008 24.9355 77.6738 24.9062 77.5371 24.8867C77.4004 24.8672 77.2734 24.8525 77.1562 24.8428C77.0195 24.833 76.8828 24.833 76.7461 24.8428C76.6094 24.8525 76.458 24.8672 76.292 24.8867C76.1553 24.9062 75.9893 24.9307 75.7939 24.96C75.5986 24.9893 75.3936 25.0283 75.1787 25.0771C75.3252 24.6377 75.4375 24.2568 75.5156 23.9346C75.6035 23.6123 75.667 23.3438 75.7061 23.1289C75.7451 22.875 75.7695 22.6699 75.7793 22.5137C75.7793 22.3184 75.7793 22.0986 75.7793 21.8545C75.7793 21.6006 75.7793 21.3564 75.7793 21.1221C75.7793 20.8877 75.7744 20.6826 75.7646 20.5068C75.7549 20.3213 75.7354 20.2041 75.7061 20.1553L75.5596 20.0088C75.501 19.96 75.4131 19.8916 75.2959 19.8037C75.1885 19.7061 75.042 19.5889 74.8564 19.4521ZM75.8965 17.1963C76.1016 17.0889 76.3066 17.0596 76.5117 17.1084C76.7266 17.1572 76.8926 17.25 77.0098 17.3867C77.127 17.5234 77.166 17.6846 77.127 17.8701C77.0977 18.0557 76.9414 18.2363 76.6582 18.4121C76.375 18.5781 76.126 18.6367 75.9111 18.5879C75.6963 18.5391 75.5449 18.4365 75.457 18.2803C75.3691 18.124 75.3545 17.9434 75.4131 17.7383C75.4717 17.5234 75.6328 17.3428 75.8965 17.1963ZM78.8994 24.3887C78.9678 24.0664 79.0166 23.7832 79.0459 23.5391C79.085 23.2852 79.1143 23.0752 79.1338 22.9092C79.1533 22.7139 79.1631 22.5479 79.1631 22.4111C79.1533 22.2451 79.1436 22.0498 79.1338 21.8252C79.1338 21.5908 79.124 21.3613 79.1045 21.1367C79.0947 20.9023 79.0801 20.6973 79.0605 20.5215C79.041 20.3359 79.0166 20.2041 78.9873 20.126C78.9482 20.0479 78.8945 19.9648 78.8262 19.877C78.6895 19.7109 78.4893 19.5498 78.2256 19.3936C78.4502 19.3447 78.6406 19.3057 78.7969 19.2764C78.9629 19.2373 79.0996 19.2031 79.207 19.1738C79.3242 19.1348 79.4268 19.1006 79.5146 19.0713C79.5928 19.042 79.6855 19.0127 79.793 18.9834C79.8809 18.9639 79.9883 18.9395 80.1152 18.9102C80.2422 18.8809 80.3887 18.8467 80.5547 18.8076L80.5107 20.1406C80.8232 19.7695 81.1406 19.4912 81.4629 19.3057C81.7852 19.1201 82.0879 18.9883 82.3711 18.9102C82.6934 18.8125 83.0107 18.7637 83.3232 18.7637C83.7139 18.7832 84.0752 18.8467 84.4072 18.9541C84.749 19.0615 85.042 19.1885 85.2861 19.335C85.54 19.4717 85.7451 19.6182 85.9014 19.7744C86.0576 19.9307 86.1504 20.0674 86.1797 20.1846C86.2969 20.5654 86.3262 20.917 86.2676 21.2393C86.209 21.5518 86.1309 21.8594 86.0332 22.1621C85.9453 22.4551 85.8672 22.748 85.7988 23.041C85.7402 23.334 85.7646 23.6514 85.8721 23.9932C85.9111 24.0811 85.9502 24.1689 85.9893 24.2568C86.0283 24.335 86.0771 24.4131 86.1357 24.4912C86.1943 24.5693 86.2627 24.6328 86.3408 24.6816C86.2334 24.6719 86.126 24.667 86.0186 24.667C85.9111 24.6572 85.8135 24.6475 85.7256 24.6377C85.6182 24.6279 85.5205 24.6182 85.4326 24.6084C85.335 24.5986 85.2031 24.5938 85.0371 24.5938C84.7539 24.5938 84.3145 24.6084 83.7188 24.6377C83.8066 24.4326 83.875 24.2617 83.9238 24.125C83.9824 23.9785 84.0312 23.8613 84.0703 23.7734C84.1094 23.666 84.1387 23.583 84.1582 23.5244C84.2754 23.2412 84.3438 22.9189 84.3633 22.5576C84.3926 22.1963 84.3682 21.8301 84.29 21.459C84.2607 21.332 84.2119 21.1807 84.1436 21.0049C84.0752 20.8291 83.9824 20.6582 83.8652 20.4922C83.7578 20.3262 83.626 20.1846 83.4697 20.0674C83.3232 19.9502 83.1523 19.8818 82.957 19.8623C82.7617 19.8428 82.542 19.8916 82.2979 20.0088C82.0635 20.126 81.8096 20.3408 81.5361 20.6533C81.3311 20.917 81.1699 21.2393 81.0527 21.6201C80.9453 21.9424 80.8721 22.3477 80.833 22.8359C80.7939 23.3145 80.8525 23.876 81.0088 24.5205C80.8721 24.501 80.7451 24.4912 80.6279 24.4912C80.5107 24.4814 80.4131 24.4717 80.335 24.4619C80.2373 24.4521 80.1494 24.4424 80.0713 24.4326C79.9834 24.4326 79.8857 24.4277 79.7783 24.418C79.6807 24.418 79.5586 24.418 79.4121 24.418C79.2656 24.4082 79.0947 24.3984 78.8994 24.3887ZM94.1484 19.7891C94.1191 19.5938 94.0947 19.4326 94.0752 19.3057C94.0557 19.1689 94.0361 19.0615 94.0166 18.9834C93.9971 18.8857 93.9824 18.8125 93.9727 18.7637C93.9531 18.7148 93.9287 18.6611 93.8994 18.6025C93.8799 18.5537 93.8457 18.4951 93.7969 18.4268C93.7578 18.3584 93.709 18.2803 93.6504 18.1924C93.7773 18.2314 93.9043 18.2559 94.0312 18.2656C94.168 18.2754 94.2949 18.2852 94.4121 18.2949C94.5391 18.3047 94.6709 18.3047 94.8076 18.2949C94.9443 18.2949 95.1006 18.29 95.2764 18.2803C95.4326 18.2705 95.6182 18.2656 95.833 18.2656C96.0576 18.2559 96.3115 18.2412 96.5947 18.2217C96.4287 18.2607 96.2871 18.3291 96.1699 18.4268C96.0625 18.5146 95.9697 18.6123 95.8916 18.7197C95.8037 18.8369 95.7305 18.9639 95.6719 19.1006C95.623 19.2275 95.5938 19.4717 95.584 19.833C95.5742 20.1846 95.5742 20.6045 95.584 21.0928C95.5938 21.5713 95.6035 22.0889 95.6133 22.6455C95.6328 23.2021 95.6426 23.7344 95.6426 24.2422C95.6523 24.75 95.6523 25.2139 95.6426 25.6338C95.6328 26.0439 95.6084 26.3467 95.5693 26.542C95.4326 27.1572 95.1787 27.6553 94.8076 28.0361C94.4365 28.4268 93.9482 28.6367 93.3428 28.666C92.6104 28.6953 92.0293 28.627 91.5996 28.4609C91.1797 28.2949 90.8525 28.0898 90.6182 27.8457C90.3838 27.6113 90.208 27.3721 90.0908 27.1279C89.9736 26.8838 89.8516 26.6982 89.7246 26.5713C89.6074 26.4639 89.4902 26.3613 89.373 26.2637C89.2656 26.1855 89.1533 26.1074 89.0361 26.0293C88.9287 25.9512 88.8213 25.9023 88.7139 25.8828C88.9971 25.8926 89.251 25.8975 89.4756 25.8975C89.7002 25.8975 89.8906 25.8975 90.0469 25.8975C90.2227 25.8975 90.3789 25.8926 90.5156 25.8828H90.9844H92.3174C92.1221 25.9414 91.9756 26.0049 91.8779 26.0732C91.7803 26.1514 91.7119 26.2295 91.6729 26.3076C91.6338 26.3955 91.6143 26.4834 91.6143 26.5713C91.6533 26.8057 91.7803 26.9766 91.9951 27.084C92.21 27.1914 92.5029 27.2549 92.874 27.2744C93.2354 27.2939 93.4844 27.2842 93.6211 27.2451C93.7578 27.2158 93.8652 27.1572 93.9434 27.0693C94.0996 26.835 94.2314 26.5322 94.3389 26.1611C94.417 25.8486 94.4707 25.4434 94.5 24.9453C94.5391 24.4375 94.4951 23.8174 94.3682 23.085C94.0557 23.5146 93.6943 23.8369 93.2842 24.0518C92.874 24.2666 92.4834 24.4229 92.1123 24.5205C91.6729 24.6279 91.2285 24.6816 90.7793 24.6816C89.5977 24.6328 88.7139 24.3594 88.1279 23.8613C87.542 23.3633 87.2734 22.6943 87.3223 21.8545C87.3516 21.4346 87.4785 21.0146 87.7031 20.5947C87.9375 20.1748 88.2402 19.7988 88.6113 19.4668C88.9922 19.1348 89.4268 18.8711 89.915 18.6758C90.4033 18.4805 90.9111 18.3975 91.4385 18.4268C91.8389 18.4658 92.2148 18.5391 92.5664 18.6465C92.8691 18.7441 93.167 18.8809 93.46 19.0566C93.7627 19.2324 93.9922 19.4766 94.1484 19.7891ZM89.4902 21.2539C89.4316 21.6348 89.4561 21.9912 89.5635 22.3232C89.6807 22.6553 89.8418 22.9434 90.0469 23.1875C90.252 23.4219 90.4814 23.6074 90.7354 23.7441C90.9893 23.8711 91.2285 23.9297 91.4531 23.9199C91.9219 23.9102 92.3271 23.7002 92.6689 23.29C93.0107 22.8701 93.2158 22.2451 93.2842 21.415C93.3135 21.0049 93.2598 20.6533 93.123 20.3604C92.9961 20.0576 92.835 19.8135 92.6396 19.6279C92.4443 19.4424 92.2393 19.3105 92.0244 19.2324C91.8096 19.1543 91.6387 19.1201 91.5117 19.1299C91.3359 19.1494 91.1406 19.2031 90.9258 19.291C90.7207 19.3691 90.5205 19.4912 90.3252 19.6572C90.1299 19.8135 89.9541 20.0234 89.7979 20.2871C89.6514 20.5508 89.5488 20.873 89.4902 21.2539Z" fill="#4E4E4E"/>
</svg>
